<?xml version="1.0" encoding="UTF-8" standalone="no"?>
<!-- Created with Inkscape (http://www.inkscape.org/) -->

<svg
   xmlns:dc="http://purl.org/dc/elements/1.1/"
   xmlns:cc="http://creativecommons.org/ns#"
   xmlns:rdf="http://www.w3.org/1999/02/22-rdf-syntax-ns#"
   xmlns:svg="http://www.w3.org/2000/svg"
   xmlns="http://www.w3.org/2000/svg"
   xmlns:sodipodi="http://sodipodi.sourceforge.net/DTD/sodipodi-0.dtd"
   xmlns:inkscape="http://www.inkscape.org/namespaces/inkscape"
   version="1.1"
   id="svg938"
   width="1066.6667"
   height="298.66666"
   viewBox="0 0 1066.6667 298.66666"
   sodipodi:docname="cryptomatte_new.svg"
   enable-background="new"
   inkscape:version="0.92.2 5c3e80d, 2017-08-06">
  <metadata
     id="metadata944">
    <rdf:RDF>
      <cc:Work
         rdf:about="">
        <dc:format>image/svg+xml</dc:format>
        <dc:type
           rdf:resource="http://purl.org/dc/dcmitype/StillImage" />
        <dc:title></dc:title>
      </cc:Work>
    </rdf:RDF>
  </metadata>
  <defs
     id="defs942">
    <clipPath
       clipPathUnits="userSpaceOnUse"
       id="clipPath6185">
      <path
         clip-path="none"
         style="display:inline;fill:#000000;fill-opacity:1;fill-rule:evenodd;stroke:#000000;stroke-width:0;stroke-linecap:butt;stroke-linejoin:miter;stroke-miterlimit:4;stroke-dasharray:none;stroke-opacity:1"
         d="m -3.9283686,-263.74516 c 0,0 -44.7511744,14.87774 -85.9599854,84.19206 -34.828566,58.58259 -31.391156,116.119052 -31.391156,116.119052 0,0 54.36923,33.108317 114.4048627,32.444878 67.9086743,-0.750443 120.0653273,-33.653328 120.0653273,-33.653328 0,0 -0.50119,-60.510632 -33.968523,-118.619052 -38.075446,-66.10936 -83.1505256,-80.48361 -83.1505256,-80.48361 z"
         id="path6187"
         inkscape:connector-curvature="0"
         sodipodi:nodetypes="cscscsc" />
    </clipPath>
  </defs>
  <sodipodi:namedview
     pagecolor="#ffffff"
     bordercolor="#666666"
     borderopacity="1"
     objecttolerance="10"
     gridtolerance="10"
     guidetolerance="10"
     inkscape:pageopacity="0"
     inkscape:pageshadow="2"
     inkscape:window-width="2094"
     inkscape:window-height="1333"
     id="namedview940"
     showgrid="false"
     inkscape:zoom="2"
     inkscape:cx="207.79361"
     inkscape:cy="149.85075"
     inkscape:window-x="303"
     inkscape:window-y="3"
     inkscape:window-maximized="0"
     inkscape:current-layer="g6101" />
  <g
     inkscape:groupmode="layer"
     id="layer2"
     inkscape:label="Text Geom"
     style="display:inline">
    <path
       style="display:inline;fill:#000000;stroke-width:1.33333337"
       d="m 424.85,236.62971 c 11.40809,-6.68558 16.98964,-16.53867 33.63995,-59.38455 C 464.3132,162.26032 470.32645,146.85 471.85272,143 l 2.77505,-7 h -4.35433 c -4.85177,0 -3.254,-3.54418 -20.29917,45.0277 l -5.74154,16.36106 -2.32293,-7.02772 C 440.6322,186.4958 435.52205,172.83333 430.55393,160 c -8.81658,-22.77446 -9.13101,-23.34335 -13.12677,-23.75115 -2.2516,-0.2298 -4.09381,-0.0905 -4.09381,0.30963 0,0.40009 5.98533,16.13016 13.30076,34.9557 l 13.30074,34.22827 -3.39069,6.79544 c -3.88763,7.79139 -11.31112,16.00558 -17.38733,19.23936 -3.52962,1.87846 -4.00094,2.68741 -3.04296,5.22274 1.41804,3.75294 1.72244,3.74003 8.73613,-0.37028 z m 63.14926,0.70362 h 4 4 l 0.007,-20.33333 0.007,-20.33334 2.99338,3.5526 c 9.09696,10.79646 27.81488,11.61043 39.37848,1.71242 8.67291,-7.4237 11.49169,-14.88607 11.55839,-30.59835 0.0509,-12.01359 -0.30449,-14.01801 -3.59072,-20.25065 -9.53831,-18.09029 -31.715,-21.79063 -45.85451,-7.65114 l -5.8316,5.83162 v -6.63159 c 0,-6.18479 -0.22457,-6.63157 -3.33333,-6.63157 h -3.33333 v 50.66666 z m 11.00076,-46.62135 c -4.00623,-7.93726 -4.2493,-27.16533 -0.44918,-35.53344 3.42143,-7.53422 10.61171,-12.7588 18.61791,-13.52809 14.57084,-1.40008 25.49793,11.60617 25.49793,30.34955 0,13.74336 -5.92794,24.68229 -15.62384,28.83088 -10.59629,4.53385 -22.88521,0.0996 -28.04282,-10.1189 z M 356.33334,206.6525 c 3.50936,-1.01386 5,-2.19738 5,-3.96982 0,-3.73752 -1.29776,-3.98866 -9.35438,-1.81022 -9.74556,2.63511 -24.17323,1.63668 -32.42943,-2.24418 -8.01197,-3.76607 -16.07455,-12.92563 -19.13128,-21.73426 -2.81823,-8.12134 -3.17775,-26.63212 -0.68179,-35.10381 2.47332,-8.39487 9.54512,-17.93712 16.43516,-22.1766 10.638,-6.54563 29.0265,-7.87514 41.31983,-2.98749 1.5188,0.60385 2.39456,-0.0462 2.95633,-2.19438 1.14075,-4.36227 -0.28837,-5.19977 -11.67118,-6.83963 -31.27858,-4.50614 -54.16498,12.08346 -58.53706,42.43157 -4.06502,28.21662 9.5915,51.91992 33.3838,57.94349 5.99151,1.51688 25.6428,0.72707 32.71,-1.31467 z m 239.40331,1.82215 c 2.17261,-0.58191 2.95208,-1.64207 2.66666,-3.62695 -0.34554,-2.40404 -1.17866,-2.74802 -5.81873,-2.40904 -3.84164,0.28067 -6.3603,-0.36874 -8.66667,-2.2346 -3.2286,-2.61192 -3.25408,-2.82092 -3.66028,-30.02388 l -0.40907,-27.39364 9.74241,-0.39326 c 8.94838,-0.36123 9.7771,-0.63778 10.16845,-3.39328 0.40965,-2.8844 0.0372,-3 -9.66667,-3 h -10.09273 v -7.93064 -7.93064 l -4,1.3944 c -3.71084,1.29361 -4,1.86692 -4,7.93064 V 136 h -6.09274 c -5.55573,0 -6.05518,0.26441 -5.66666,3 0.3528,2.48412 1.38405,3.06969 5.99698,3.40532 l 5.57092,0.40532 0.42908,27.83401 c 0.3978,25.80488 0.63286,28.10816 3.22428,31.59468 1.53736,2.06836 4.23736,4.50183 6,5.40768 3.47748,1.78715 9.40854,2.13103 14.27477,0.82764 z m 76.79972,-51.23269 c -2.94172,-10.00039 -12.07164,-18.8915 -21.79392,-21.22383 -27.68208,-6.64083 -48.38806,19.99713 -39.3088,50.57028 2.64946,8.92171 12.233,19.03499 19.9764,21.0806 28.86546,7.62555 50.42641,-18.81141 41.12632,-50.42705 z m -54.8622,18.13054 c -1.36683,-17.21697 7.11316,-31.4867 19.94928,-33.56972 15.56816,-2.52636 27.23256,8.42499 28.72078,26.96507 1.09594,13.65301 -4.70264,26.31335 -14.29258,31.20577 -16.27826,8.30455 -32.69798,-3.44568 -34.37748,-24.60112 z m 202.60362,33.01258 c 7.25165,1.3886 12.83796,0.71314 19.41117,-2.34708 3.86225,-1.79811 7.37644,-4.19226 7.80932,-5.32031 1.39772,-3.64241 3.16841,-2.18064 3.16841,2.61564 0,4.20852 0.36206,4.66667 3.68784,4.66663 h 3.68784 l -0.36453,-15 c -1.03715,-42.67716 -0.9216,-41.37304 -4.17516,-47.1201 -1.69804,-2.99938 -4.98079,-6.58716 -7.295,-7.97282 -5.6284,-3.3701 -19.31144,-3.43398 -27.87432,-0.13014 -6.61496,2.55227 -7.03595,3.04934 -5.13047,6.05762 0.97266,1.53556 2.16063,1.45321 7.28886,-0.50528 7.57404,-2.89255 18.26032,-2.1874 22.37248,1.47629 3.55466,3.167 6.46913,9.91547 6.46913,14.97932 0,3.82431 -0.11419,3.8818 -9.55837,4.8124 -23.5571,2.32125 -35.99835,13.87576 -32.43068,30.11921 1.06978,4.8707 8.61138,12.84094 12.93348,13.66858 z m 18.36233,-8.05382 c -11.15961,5.60678 -22.82648,0.2632 -23.11093,-10.58512 -0.30391,-11.59012 7.56237,-17.71658 24.1375,-18.79893 l 9.66667,-0.63123 v 9.3115 c 0,10.896 -3.09353,16.88554 -10.69324,20.70374 z m 67.7632,8.14335 c 2.17262,-0.58191 2.95208,-1.64207 2.66667,-3.62695 -0.34555,-2.40404 -1.17867,-2.74802 -5.81874,-2.40904 -3.84164,0.28067 -6.36029,-0.36874 -8.66666,-2.2346 -3.2286,-2.61192 -3.25408,-2.82092 -3.66028,-30.02388 l -0.40907,-27.39364 9.7424,-0.39326 c 8.94839,-0.36123 9.77711,-0.63778 10.16846,-3.39328 0.40965,-2.8844 0.0372,-3 -9.66667,-3 h -10.09274 v -7.93064 -7.93064 l -4,1.3944 c -3.71084,1.29361 -4,1.86692 -4,7.93064 v 6.53624 h -6.09273 c -5.55573,0 -6.05519,0.26441 -5.66667,3 0.3528,2.48412 1.38406,3.06969 5.99699,3.40532 l 5.57092,0.40532 0.42908,27.83401 c 0.3978,25.80488 0.63285,28.10816 3.22428,31.59468 1.53736,2.06836 4.23736,4.50183 6,5.40768 3.47748,1.78715 9.40853,2.13103 14.27476,0.82764 z m 46.66667,0 c 2.17261,-0.58191 2.95208,-1.64207 2.66667,-3.62695 -0.34555,-2.40404 -1.17867,-2.74802 -5.81874,-2.40904 -3.84164,0.28067 -6.36029,-0.36874 -8.66666,-2.2346 -3.2286,-2.61192 -3.25408,-2.82092 -3.66028,-30.02388 l -0.40907,-27.39364 9.7424,-0.39326 c 8.94839,-0.36123 9.77711,-0.63778 10.16845,-3.39328 0.40966,-2.8844 0.0372,-3 -9.66666,-3 h -10.09274 v -7.93064 -7.93064 l -4,1.3944 c -3.71084,1.29361 -4,1.86692 -4,7.93064 v 6.53624 h -6.09273 c -5.55573,0 -6.05519,0.26441 -5.66667,3 0.3528,2.48412 1.38406,3.06969 5.99699,3.40532 l 5.57092,0.40532 0.42908,27.83401 c 0.3978,25.80488 0.63285,28.10816 3.22428,31.59468 1.53736,2.06836 4.23736,4.50183 6,5.40768 3.47748,1.78715 9.40853,2.13103 14.27476,0.82764 z m 36.0484,-0.71719 c 6.65976,1.7735 14.82841,1.84588 22.48321,0.19926 8.3558,-1.7974 9.7852,-2.8 8.8873,-6.23351 -0.7129,-2.72637 -0.974,-2.76701 -6.1175,-0.95229 -6.7863,2.39441 -18.48669,2.44016 -24.10113,0.0943 -8.58945,-3.5889 -15.57467,-14.87524 -15.59557,-25.19861 l -0.008,-3.66667 H 1000 h 25.3334 v -3.93437 c 0,-13.60037 -6.8552,-26.46449 -16.4156,-30.80503 -14.43184,-6.55216 -30.07436,-0.0333 -37.83302,15.76662 -3.2718,6.66276 -3.75143,9.17364 -3.74443,19.63945 0.006,9.86327 0.56081,13.12709 3.11723,18.32977 3.72878,7.58864 11.95168,14.97468 18.66025,16.76116 z m 28.56391,-42.42418 H 996.14908 974.6159 l 0.8555,-3.66667 c 1.3568,-5.81515 6.21204,-13.86304 10.09598,-16.73473 5.14496,-3.8041 15.28682,-4.39487 21.03202,-1.22515 5.0509,2.78668 9.0982,9.3966 10.3042,16.82841 z M 378.66668,208 h 4 4 l 0.0293,-23.66667 c 0.0248,-20.07309 0.40093,-24.48487 2.47693,-29.05516 3.34216,-7.35772 9.83928,-12.61151 15.5961,-12.61151 4.18262,0 4.56436,-0.33453 4.56436,-4 0,-3.41836 -0.50387,-4 -3.46516,-4 -6.04711,0 -12.71138,4.18575 -16.71467,10.4983 l -3.82017,6.02378 v -7.59437 c 0,-7.21177 -0.16794,-7.59437 -3.33334,-7.59437 h -3.33333 v 36 z m 314.66671,0 h 4.00001 4 l -6e-5,-24.71979 c 0,-21.97196 0.2923,-25.29272 2.62947,-29.87396 7.47656,-14.65527 24.57511,-15.98675 30.74519,-2.39416 2.24478,4.94523 2.57046,8.87435 2.59606,31.32124 L 737.33336,208 h 4 4 v -25.80283 c 0,-24.63057 0.13773,-26.0072 3.03173,-30.3016 1.66744,-2.47433 5.11744,-5.91604 7.66667,-7.64825 9.28094,-6.30646 21.6546,-1.2275 25.11041,10.30698 0.90069,3.00627 1.52452,14.98219 1.52452,29.26706 V 208 h 4.09828 4.09828 l -0.43161,-27.04222 c -0.41262,-25.8516 -0.57996,-27.33388 -3.801,-33.66666 -7.8099,-15.35483 -28.0148,-16.69928 -39.60736,-2.6355 l -4.12144,5.00002 -2.09746,-4.05604 c -4.46369,-8.63184 -15.6377,-12.84489 -25.46538,-9.60147 -2.73456,0.90249 -7.30452,4.04445 -10.15546,6.98216 l -5.18352,5.34125 v -6.16077 c 0,-5.6826 -0.25872,-6.16077 -3.33333,-6.16077 h -3.33334 v 36 z"
       id="path1493"
       inkscape:connector-curvature="0"
       sodipodi:nodetypes="csccssccscsccsccccccccsscsccssccccscssccsscsssccssccccccscccsccccscscccscccsssssssssscscsccsccscscssccccsscsccccccscccsccccscscccscccccccscccsccccscscccscccccccsccccscscccccccccccccccsssssccsscccccccscccccscccscccscscscccssccc"
       inkscape:label="cryptomatte text" />
    <g
       id="g6222"
       transform="translate(-7)"
       inkscape:label="logo group">
      <path
         style="display:inline;fill:#6b63d3;fill-opacity:1;fill-rule:evenodd;stroke:#000000;stroke-width:0;stroke-linecap:butt;stroke-linejoin:miter;stroke-miterlimit:4;stroke-dasharray:none;stroke-opacity:1"
         d="m 147.8246,12.393122 c 0,0 -60.928844,34.46015 -102.137655,103.774468 -34.82857,58.58259 -33.06379,130.94572 -33.06379,130.94572 0,0 50.365298,36.3988 129.636255,36.6648 80.93294,0.27157 141.094,-35.68271 141.094,-35.68271 0,0 0.49451,-72.66045 -32.0817,-131.27308 C 216.19627,53.712962 147.8246,12.393122 147.8246,12.393122 Z"
         id="path5924"
         inkscape:connector-curvature="0"
         sodipodi:nodetypes="cscscsc"
         inkscape:label="outer shield" />
      <path
         clip-path="none"
         style="display:inline;fill:#000000;fill-opacity:1;fill-rule:evenodd;stroke:#000000;stroke-width:0;stroke-linecap:butt;stroke-linejoin:miter;stroke-miterlimit:4;stroke-dasharray:none;stroke-opacity:1"
         d="m 148.15196,33.999172 c 0,0 -44.75117,14.87774 -85.95998,84.192058 -34.828565,58.58259 -31.391155,116.11906 -31.391155,116.11906 0,0 54.369229,33.10831 114.404865,32.44487 67.90867,-0.75044 120.06532,-33.65332 120.06532,-33.65332 0,0 -0.50119,-60.51064 -33.96852,-118.61906 C 193.22704,48.373422 148.15196,33.999172 148.15196,33.999172 Z"
         id="path5929"
         inkscape:connector-curvature="0"
         sodipodi:nodetypes="cscscsc"
         inkscape:label="inner shield" />
      <g
         clip-path="url(#clipPath6185)"
         inkscape:label="question mark group"
         style="display:inline"
         transform="translate(152.08033,297.74433)"
         id="g5918">
        <g
           id="g6101">
          <path
             style="fill:#6b63d3;fill-opacity:1;fill-rule:evenodd;stroke:#000000;stroke-width:0;stroke-linecap:butt;stroke-linejoin:miter;stroke-miterlimit:4;stroke-dasharray:none;stroke-opacity:1"
             d="m -13.595269,-112.17861 c 0,0 -3.613269,7.78739 -6.25,11.125 -1.827861,2.313733 -4.143999,4.226947 -6.5,5.999994 -3.854004,2.900393 -8.190664,5.100633 -12.375,7.5 -3.946354,2.262904 -8.287499,3.870974 -12,6.5 -2.431456,1.721848 -4.452391,3.961248 -6.625,6 -1.525563,1.431571 -3.186086,2.747006 -4.5,4.375 -2.221868,2.752985 -4.53708,5.633688 -5.625,9 -0.963128,2.98017 -0.914481,6.25647 -0.625,9.375 0.278354,2.99866 0.250044,5.993352 1.125,8.875 0.949495,3.127142 2.470929,6.468862 4.375,9.125 2.282449,3.183967 5.996995,5.067071 9.25,7.25 2.308793,1.549315 4.629849,3.194564 7.25,4.125 3.104875,1.102566 6.456059,1.548495 9.75,1.625 4.572621,0.106203 9.190155,-0.505944 13.625,-1.625 3.083422,-0.778048 6.440585,-1.453913 8.875,-3.5 1.345726,-1.131061 1.904125,-2.95897 2.75,-4.5 1.09392,-1.992923 2.0053379,-4.080728 3.0000002,-6.125 1.2148611,-2.496834 3.5584981,-4.724095 3.625,-7.5 0.050972,-2.127655 -1.1771872,-4.207763 -2.5,-5.875 -1.3156954,-1.658267 -3.0494292,-3.33418 -5.1250002,-3.75 -2.269192,-0.45461 -4.887682,0.251074 -6.75,1.625 -1.247818,0.920578 -2.056594,2.482393 -2.375,4 -0.491339,2.341854 0.602593,4.747714 0.875,7.125 0.224199,1.95658 1.160814,3.979907 0.625,5.875 -0.501112,1.772357 -1.767753,3.47549 -3.375,4.375 -3.071696,1.719102 -6.736729,2.406941 -10.25,2.625 -2.412384,0.14973 -5.174828,-0.715009 -7.5,-1.375 -2.52397,-0.71642 -4.628395,-2.547869 -6.625,-4.25 -1.998618,-1.703847 -4.160907,-3.485137 -5.25,-5.875 -1.375892,-3.019205 -1.514408,-6.567619 -1.25,-9.875 0.318364,-3.9823 1.596036,-7.92294 3.375,-11.5 1.87028,-3.760675 4.757559,-6.943861 7.5,-10.125 2.423955,-2.811706 5.166287,-5.336472 7.875,-7.875 3.317622,-3.109179 7.056567,-5.763398 10.25,-9 2.117168,-2.145788 4.161212,-4.395134 5.875,-6.875 1.918926,-2.776702 3.36108,-5.858304 4.875,-8.874994 1.17086,-2.33309 4.2918468,-4.73151 3.25,-7.125 -0.368114,-0.84569 -2.625,-0.875 -2.625,-0.875 z"
             id="path5963"
             inkscape:connector-curvature="0"
             sodipodi:nodetypes="csssssssssssssssssssssssssssssssssssscc"
             clip-path="none"
             inkscape:label="thin question 6" />
          <path
             style="fill:#6b63d3;fill-opacity:1;fill-rule:evenodd;stroke:#000000;stroke-width:0;stroke-linecap:butt;stroke-linejoin:miter;stroke-miterlimit:4;stroke-dasharray:none;stroke-opacity:1"
             d="m -17.826681,-147.43581 c 0,0 -4.937441,-7.02288 -6.509538,-10.97517 -1.089818,-2.73984 -1.588634,-5.70228 -1.946148,-8.62916 -0.584811,-4.78786 -0.32194,-9.64364 -0.307684,-14.46707 0.01344,-4.54909 0.791381,-9.11266 0.370834,-13.6423 -0.275435,-2.96662 -1.204347,-5.8365 -1.88365,-8.73742 -0.477002,-2.03696 -0.785938,-4.13273 -1.538867,-6.08461 -1.273214,-3.30069 -2.610373,-6.74607 -4.981717,-9.3714 -2.099346,-2.32416 -4.961035,-3.92019 -7.806494,-5.22876 -2.73609,-1.25827 -5.315418,-2.78012 -8.248481,-3.46321 -3.182932,-0.7413 -6.837662,-1.09456 -10.089978,-0.77364 -3.898617,0.38467 -7.386706,2.66 -10.903685,4.38572 -2.496139,1.22482 -5.081498,2.41229 -7.197381,4.21615 -2.507285,2.13762 -4.569065,4.81687 -6.282295,7.63125 -2.378278,3.9069 -4.15691,8.21188 -5.405204,12.61209 -0.867896,3.05935 -1.961169,6.30468 -1.406407,9.43598 0.30666,1.73096 1.610478,3.1285 2.522113,4.63157 1.17896,1.94383 2.531341,3.77704 3.804409,5.66058 1.554881,2.30052 2.311927,5.4438 4.682689,6.88934 1.817119,1.10797 4.232618,1.08441 6.337895,0.77243 2.093953,-0.31029 4.412198,-0.97379 5.810094,-2.56338 1.528307,-1.73787 2.226412,-4.35839 1.967713,-6.65816 -0.173343,-1.54094 -1.121518,-3.02227 -2.276609,-4.05681 -1.782431,-1.59644 -4.412937,-1.852 -6.607934,-2.80473 -1.806543,-0.78413 -4.027106,-0.98466 -5.400403,-2.39623 -1.284349,-1.32016 -2.12598,-3.26867 -2.101353,-5.11034 0.04706,-3.51971 1.283881,-7.03765 2.85168,-10.18926 1.076518,-2.16405 3.206636,-4.12403 4.940786,-5.80769 1.88242,-1.82761 4.520719,-2.73437 6.993111,-3.61242 2.474873,-0.87892 5.098678,-1.86087 7.712889,-1.60913 3.302657,0.31804 6.444938,1.97229 9.177001,3.85497 3.28959,2.26686 6.063458,5.34367 8.271796,8.67283 2.321694,3.50005 3.634786,7.5921 5.01851,11.55769 1.223033,3.50507 2.038378,7.14237 2.88245,10.75745 1.033817,4.42774 1.46297,8.99287 2.669231,13.37676 0.799716,2.90642 1.725695,5.80129 3.016426,8.5254 1.445227,3.05019 3.392925,5.83992 5.248471,8.65938 1.435076,2.18053 1.951688,6.0826 4.545428,6.37708 0.916445,0.10404 2.070268,-1.83582 2.070268,-1.83582 z"
             id="path5971"
             inkscape:connector-curvature="0"
             sodipodi:nodetypes="csssssssssssssssssssssssssssssssssssscc"
             clip-path="none"
             inkscape:label="thin question 5" />
          <path
             sodipodi:nodetypes="csssssssssssssssssssssssssssssssssssscc"
             inkscape:connector-curvature="0"
             id="path5969"
             d="m 7.400908,-146.6351 c 0,0 6.058807,-6.08194 9.678054,-8.31646 2.508972,-1.54903 5.339789,-2.55469 8.160121,-3.41502 4.613573,-1.40733 9.441228,-1.99165 14.193852,-2.81519 4.482312,-0.77671 9.111647,-0.80304 13.499438,-2.00376 2.873729,-0.7864 5.538706,-2.19955 8.277586,-3.37227 1.923186,-0.82347 3.933473,-1.49164 5.724952,-2.57207 3.029454,-1.82703 6.190301,-3.74216 8.363959,-6.53336 1.92431,-2.47104 2.99916,-5.5664 3.79374,-8.59586 0.76404,-2.91302 1.81488,-5.71743 1.97827,-8.72455 0.17732,-3.2633 -0.10942,-6.92385 -0.99022,-10.07103 -1.05582,-3.77259 -3.90228,-6.81258 -6.212501,-9.97646 -1.639658,-2.24553 -3.25803,-4.58541 -5.401908,-6.35591 -2.540528,-2.098 -5.5371,-3.66321 -8.606223,-4.8617 -4.260532,-1.66372 -8.808962,-2.66778 -13.359092,-3.13302 -3.163578,-0.32346 -6.549442,-0.83658 -9.536844,0.2535 -1.651414,0.60258 -2.801317,2.12927 -4.123247,3.28806 -1.709567,1.49859 -3.280092,3.14876 -4.913947,4.72956 -1.995567,1.93074 -4.959635,3.22211 -5.971536,5.80787 -0.775601,1.98191 -0.332948,4.35662 0.339862,6.37574 0.669188,2.00826 1.725167,4.17607 3.533349,5.2767 1.976855,1.20331 4.678791,1.43576 6.898706,0.78164 1.487421,-0.43829 2.781598,-1.62929 3.599845,-2.94648 1.262671,-2.03257 1.05756,-4.66749 1.614664,-6.99458 0.458513,-1.91526 0.270399,-4.13691 1.422057,-5.73446 1.077075,-1.49408 2.849836,-2.66128 4.667804,-2.95683 3.474414,-0.56485 7.153679,0.0423 10.529652,1.03901 2.318109,0.68438 4.618202,2.44179 6.577416,3.85723 2.126728,1.53646 3.477845,3.97722 4.771879,6.25958 1.295329,2.28465 2.71798,4.69808 2.924016,7.31629 0.260287,3.30771 -0.823178,6.68951 -2.202834,9.70699 -1.66119,3.63325 -4.209584,6.89926 -7.104691,9.65215 -3.043718,2.8942 -6.845586,4.89792 -10.510648,6.94924 -3.239437,1.8131 -6.679903,3.24767 -10.093488,4.70667 -4.18095,1.78698 -8.602204,3.00234 -12.71003,4.95153 -2.723391,1.29226 -5.413486,2.70686 -7.872084,4.45102 -2.752889,1.95293 -5.162024,4.35547 -7.616434,6.67242 -1.89821,1.79192 -5.651285,2.97827 -5.490889,5.58374 0.05667,0.92059 2.167423,1.72003 2.167423,1.72003 z"
             style="fill:#a7a1f9;fill-opacity:1;fill-rule:evenodd;stroke:#000000;stroke-width:0;stroke-linecap:butt;stroke-linejoin:miter;stroke-miterlimit:4;stroke-dasharray:none;stroke-opacity:1"
             clip-path="none"
             inkscape:label="thin question 4" />
          <path
             sodipodi:nodetypes="cssssssssssssssssssssscc"
             inkscape:connector-curvature="0"
             id="path5450"
             d="m -2.2915499,-151.29554 c -0.2143444,-0.13397 2.80201151,-17.44434 8.347789,-25.04337 5.7568789,-7.88829 12.8205559,-14.95515 18.3323999,-22.9155 2.781531,-4.01716 6.101368,-8.00663 7.202014,-12.7672 1.662095,-7.18898 1.48905,-15.26977 -1.309457,-22.09709 -2.41971,-5.9032 -7.109894,-11.16014 -12.603525,-14.40403 -7.9343234,-4.68507 -17.81853548,-6.5747 -27.0075529,-5.89256 -7.5083241,0.55737 -16.3733981,2.61647 -21.9334071,7.69307 -5.514123,5.03471 -8.213358,13.03523 -9.002517,20.46026 -0.481108,4.52665 0.511873,9.6396 3.273643,13.25825 1.630075,2.13583 4.389554,3.47794 7.038332,3.92837 2.511412,0.42707 5.851049,0.8444 8.020424,-0.49104 2.258119,-1.39006 3.755262,-4.598 4.255736,-7.20202 0.681908,-3.54804 -2.589429,-6.70416 -2.782596,-10.31196 -0.153472,-2.86643 -0.403693,-6.37188 1.309457,-8.67516 2.272125,-3.05481 7.339441,-4.55956 11.1303852,-4.91047 4.4409987,-0.41108 8.50351527,1.42352 11.9487962,4.25574 4.1280825,3.39353 5.8564611,8.10411 6.3836026,13.42193 0.656637,6.62417 -1.977884,13.22341 -4.2557349,19.47818 -2.2716434,6.23773 -6.1647585,10.85786 -9.0025176,16.85926 -1.9092199,4.03768 -4.0075101,8.96473 -5.2378284,13.25825 -1.1651577,4.06613 -1.9728761,8.22209 -2.2915501,12.43984 -0.238559,3.1574 -0.327364,9.65725 -0.327364,9.65725 z"
             style="display:inline;fill:#ffffff;fill-opacity:1;fill-rule:evenodd;stroke:#000000;stroke-width:0;stroke-linecap:butt;stroke-linejoin:miter;stroke-miterlimit:10.69999981;stroke-dasharray:none;stroke-opacity:1"
             clip-path="none"
             inkscape:label="thick question 3" />
          <path
             sodipodi:nodetypes="csssssssssssssssssssssssssssssssssssscc"
             inkscape:connector-curvature="0"
             id="path5973"
             d="m -24.917088,-136.62876 c 0,0 -8.296519,-2.20611 -12.041298,-4.22322 -2.595985,-1.39831 -4.882319,-3.34704 -7.037553,-5.35936 -3.525569,-3.2918 -6.445433,-7.18051 -9.534953,-10.88464 -2.913803,-3.49344 -5.251272,-7.48939 -8.485026,-10.68898 -2.117902,-2.09551 -4.674214,-3.69687 -7.059265,-5.48246 -1.674738,-1.25379 -3.258531,-2.66066 -5.089953,-3.67192 -3.096981,-1.71007 -6.335952,-3.48987 -9.840036,-3.97672 -3.102134,-0.43098 -6.320223,0.18585 -9.341104,1.01245 -2.904767,0.79484 -5.858873,1.28699 -8.544814,2.64905 -2.91476,1.47808 -5.94152,3.55669 -8.22666,5.89307 -2.73925,2.80066 -3.94873,6.78576 -5.53362,10.36841 -1.12485,2.54276 -2.34206,5.11425 -2.80342,7.85615 -0.54666,3.24916 -0.40388,6.62687 0.0928,9.88406 0.68944,4.52158 2.09412,8.96267 3.96627,13.13582 1.30166,2.90147 2.55023,6.09028 4.98796,8.1324 1.34755,1.12887 3.24466,1.36137 4.90917,1.9268 2.1526,0.73124 4.36695,1.26627 6.552893,1.89083 2.669854,0.76284 5.270246,2.68412 8.015531,2.26757 2.104183,-0.31927 3.939418,-1.88997 5.351617,-3.48221 1.404611,-1.58366 2.754,-3.58207 2.803082,-5.69832 0.05367,-2.31366 -1.095989,-4.76983 -2.772428,-6.36526 -1.123285,-1.06901 -2.80181,-1.5943 -4.35165,-1.64433 -2.391594,-0.0772 -4.570949,1.41787 -6.864817,2.09896 -1.887922,0.56054 -3.71787,1.83428 -5.677218,1.63569 -1.83245,-0.18574 -3.72965,-1.13739 -4.89459,-2.56403 -2.22638,-2.7265 -3.54021,-6.21641 -4.36502,-9.63845 -0.56636,-2.34973 -0.19445,-5.22037 0.0517,-7.62482 0.26725,-2.61003 1.70546,-5.00051 3.03502,-7.26236 1.3309,-2.26411 2.70967,-4.70288 4.87408,-6.19041 2.73442,-1.87928 6.204878,-2.63187 9.507923,-2.94579 3.977081,-0.37799 8.079723,0.19597 11.911351,1.32677 4.028309,1.18883 7.664515,3.47949 11.273541,5.62786 3.189913,1.89889 6.152515,4.16113 9.122841,6.38789 3.638046,2.72732 6.901205,5.94856 10.643165,8.53144 2.480829,1.7124 5.050956,3.33479 7.790738,4.59191 3.067732,1.40761 6.352959,2.29271 9.586704,3.25982 2.500949,0.74794 5.404899,3.40502 7.581108,1.96338 0.768913,-0.50938 0.405875,-2.73706 0.405875,-2.73706 z"
             style="fill:#a7a1f9;fill-opacity:1;fill-rule:evenodd;stroke:#000000;stroke-width:0;stroke-linecap:butt;stroke-linejoin:miter;stroke-miterlimit:4;stroke-dasharray:none;stroke-opacity:1"
             clip-path="none"
             inkscape:label="thin question 3" />
          <path
             style="fill:#6b63d3;fill-opacity:1;fill-rule:evenodd;stroke:#000000;stroke-width:0;stroke-linecap:butt;stroke-linejoin:miter;stroke-miterlimit:4;stroke-dasharray:none;stroke-opacity:1"
             d="m 14.939511,-134.33401 c 0,0 8.55071,-0.76451 12.759532,-0.14984 2.917682,0.42611 5.732642,1.47534 8.446146,2.62917 4.438816,1.88747 8.51261,4.54301 12.682692,6.96707 3.93291,2.28618 7.49611,5.24169 11.629164,7.1423 2.706892,1.24478 5.656737,1.87526 8.508652,2.73742 2.002559,0.60539 3.97202,1.38573 6.038862,1.70961 3.495088,0.54771 7.147458,1.11239 10.606728,0.3714 3.062467,-0.656 5.875504,-2.33628 8.431489,-4.14624 2.457738,-1.74039 5.065373,-3.21322 7.123474,-5.41178 2.23344,-2.38586 4.36674,-5.37431 5.71498,-8.35136 1.61617,-3.56864 1.38972,-7.72708 1.65369,-11.63573 0.18735,-2.77413 0.45165,-5.60685 -0.0526,-8.34119 -0.59759,-3.24018 -1.887,-6.36536 -3.46771,-9.25625 -2.19434,-4.0131 -5.033241,-7.70593 -8.219793,-10.98709 -2.21552,-2.2813 -4.479419,-4.85076 -7.468588,-5.93598 -1.652392,-0.5999 -3.514606,-0.16953 -5.272116,-0.13157 -2.272881,0.0491 -4.536682,0.30369 -6.804405,0.46443 -2.769752,0.19631 -5.870435,-0.71971 -8.307691,0.61066 -1.868089,1.01968 -3.055435,3.12335 -3.837898,5.10256 -0.778255,1.96856 -1.362771,4.30797 -0.685096,6.31338 0.740892,2.19248 2.661278,4.10732 4.782291,5.03317 1.421154,0.62035 3.178113,0.53987 4.651603,0.0568 2.273773,-0.74541 3.810343,-2.89572 5.73293,-4.32027 1.582349,-1.17245 2.866294,-2.99525 4.775399,-3.47877 1.785462,-0.4522 3.893739,-0.20682 5.476362,0.73534 3.024634,1.80061 5.452837,4.63071 7.398316,7.56426 1.335862,2.01432 1.968198,4.83904 2.559215,7.18269 0.641551,2.54403 0.107678,5.28224 -0.368108,7.86242 -0.47627,2.58277 -0.937773,5.34602 -2.462899,7.48413 -1.926762,2.70116 -4.930522,4.59533 -7.927001,6.02003 -3.607954,1.71544 -7.659486,2.57927 -11.646792,2.82717 -4.191979,0.26062 -8.39234,-0.64824 -12.518508,-1.43269 -3.646986,-0.69336 -7.204663,-1.8059 -10.757449,-2.88245 -4.35144,-1.31856 -8.519533,-3.22947 -12.919229,-4.37676 -2.91689,-0.76063 -5.886904,-1.40615 -8.891425,-1.6504 -3.364157,-0.27349 -6.753984,0.0184 -10.123476,0.21562 -2.605941,0.15255 -6.243529,-1.35109 -7.795425,0.74792 -0.548335,0.74164 0.554729,2.71081 0.554729,2.71081 z"
             id="path5967"
             inkscape:connector-curvature="0"
             sodipodi:nodetypes="csssssssssssssssssssssssssssssssssssscc"
             clip-path="none" />
          <path
             style="display:inline;fill:#ffffff;fill-opacity:1;fill-rule:evenodd;stroke:#000000;stroke-width:0;stroke-linecap:butt;stroke-linejoin:miter;stroke-miterlimit:10.69999981;stroke-dasharray:none;stroke-opacity:1"
             d="m -24.429556,-124.03206 c -0.009,0.25261 -15.373104,6.83983 -25.862085,5.29228 -9.578643,-1.41324 -19.361818,-3.62535 -29.011605,-4.41857 -4.869727,-0.40029 -9.984629,-1.28062 -14.657728,0.14647 -7.056886,2.15508 -13.968536,6.34533 -18.481906,12.18257 -3.90247,5.04713 -6.11002,11.737417 -6.1725,18.116987 -0.0902,9.21386 3.21541,18.71865 8.40067,26.33551 4.23686,6.22371 10.452627,12.87154 17.629098,15.14835 7.117249,2.25801 15.39552,0.59536 22.220364,-2.43372 4.160748,-1.84668 8.092202,-5.2631 9.84516,-9.46419 1.034645,-2.4796 0.817207,-5.54043 -0.117098,-8.05956 -0.885853,-2.38848 -2.194253,-5.48935 -4.435465,-6.70037 -2.332887,-1.26056 -5.859616,-0.95315 -8.365001,-0.0846 -3.413646,1.18347 -4.511258,5.59459 -7.539121,7.56578 -2.405665,1.56612 -5.316363,3.53555 -8.167637,3.20355 -3.781606,-0.44031 -7.618416,-4.07636 -9.817783,-7.18396 -2.576507,-3.64047 -3.018957,-8.07602 -2.288817,-12.47583 0.87484,-5.27179 4.090131,-9.1239 8.431927,-12.23933 5.408381,-3.880747 12.440751,-4.898797 18.996466,-6.053507 6.537855,-1.15156 12.485562,-0.0901 19.101807,-0.63322 4.451343,-0.36541 9.767439,-1.01176 14.100895,-2.09303 4.103949,-1.02401 8.106979,-2.40249 11.918989,-4.23538 2.85367,-1.37211 8.52711,-4.54512 8.52711,-4.54512 z"
             id="path5911"
             inkscape:connector-curvature="0"
             sodipodi:nodetypes="cssssssssssssssssssssscc"
             clip-path="none"
             inkscape:label="thick question 2" />
          <path
             sodipodi:nodetypes="csssssssssssssssssssssssssssssssssssscc"
             inkscape:connector-curvature="0"
             id="path5965"
             d="m 1.7716143,-111.48568 c 0,0 2.2377123,8.28805 2.3632344,12.539666 0.087016,2.947349 -0.4574581,5.90174 -1.1225671,8.774381 -1.0880017,4.699136 -2.9957889,9.172169 -4.6588927,13.699831 -1.5685113,4.270153 -3.8603785,8.292439 -5.0144137,12.692739 -0.755821,2.881922 -0.8644882,5.896434 -1.2183194,8.854735 -0.2484518,2.07726 -0.6749418,4.152305 -0.6350028,6.243989 0.06753,3.537098 0.145659,7.232035 1.4760873,10.51008 1.1778178,2.902029 3.3210488,5.380552 5.5473559,7.583409 2.1407334,2.118184 4.0439982,4.430449 6.5665406,6.075508 2.7374437,1.785206 6.0509452,3.367154 9.2168812,4.17796 3.795071,0.97193 7.851015,0.02681 11.746121,-0.391963 2.764519,-0.297219 5.600097,-0.528832 8.205322,-1.500277 3.087187,-1.151161 5.940981,-2.963659 8.513463,-5.022357 3.571096,-2.857868 6.714852,-6.294894 9.392826,-10.002803 1.861918,-2.578005 3.999217,-5.253691 4.548887,-8.385895 0.303854,-1.73146 -0.443345,-3.490651 -0.785922,-5.214867 -0.443034,-2.229825 -1.086864,-4.415025 -1.63894,-6.620385 -0.674297,-2.693583 -0.310622,-5.906225 -2.043997,-8.075439 -1.328583,-1.662642 -3.606475,-2.466651 -5.691488,-2.893541 -2.073795,-0.424594 -4.479168,-0.593995 -6.336431,0.421619 -2.03052,1.110357 -3.582795,3.334076 -4.126271,5.583639 -0.364147,1.507286 0.02021,3.223577 0.751796,4.590799 1.128926,2.10979 3.513384,3.24962 5.25015,4.895627 1.429412,1.354715 3.44747,2.302629 4.255155,4.098769 0.755375,1.679812 0.879824,3.798669 0.226796,5.520853 -1.248036,3.291356 -3.613482,6.17411 -6.164638,8.599439 -1.751749,1.665351 -4.423747,2.778587 -6.629166,3.767596 -2.39398,1.073567 -5.183296,1.023294 -7.806892,1.002779 -2.626242,-0.02054 -5.427643,0.0048 -7.79811,-1.125876 -2.994703,-1.428439 -5.381688,-4.057646 -7.305084,-6.761204 -2.3158921,-3.255259 -3.8701335,-7.095237 -4.806657,-10.97892 -0.9845978,-4.083036 -0.8189268,-8.377406 -0.7628922,-12.577107 0.049528,-3.71198 0.5273882,-7.4088 0.9706476,-11.094552 0.5429043,-4.514296 1.7010039,-8.950893 2.0668679,-13.482973 0.2425587,-3.004658 0.3625352,-6.041644 0.081346,-9.042933 -0.3148465,-3.360539 -1.1909077,-6.648186 -1.9702679,-9.932236 -0.6027503,-2.53986 0.2463876,-6.38329 -2.0902182,-7.54712 -0.8255904,-0.41122 -2.5733068,1.01703 -2.5733069,1.01703 z"
             style="display:inline;fill:#a7a1f9;fill-opacity:1;fill-rule:evenodd;stroke:#000000;stroke-width:0;stroke-linecap:butt;stroke-linejoin:miter;stroke-miterlimit:4;stroke-dasharray:none;stroke-opacity:1"
             clip-path="none"
             inkscape:label="thin question 1" />
          <path
             sodipodi:nodetypes="cssssssssssssssssssssscc"
             inkscape:connector-curvature="0"
             id="path5913"
             d="m 10.690005,-118.3888 c 0.22327,-0.11851 14.536503,10.49271 17.51429,19.751087 2.96458,9.217315 6.54127,18.580501 10.67921,27.334072 2.088202,4.417452 3.883265,9.287252 7.455711,12.62073 5.394799,5.033905 12.479486,8.924444 19.79137,9.914517 6.322177,0.856073 13.219914,-0.577278 18.776024,-3.712953 8.024537,-4.528815 14.603121,-12.143952 18.60689,-20.442949 3.27146,-6.781083 5.92076,-15.488013 4.3043,-22.841424 -1.60313,-7.29272 -7.18216,-13.63059 -13.217844,-18.02655 -3.679646,-2.67997 -8.60408,-4.3765 -13.118809,-3.79406 -2.664719,0.34377 -5.206757,2.06249 -6.921235,4.13119 -1.625558,1.96141 -3.65679,4.64496 -3.584958,7.19142 0.07477,2.65062 2.104356,5.55115 4.109235,7.2866 2.731738,2.364569 7.100686,1.109569 10.321718,2.74618 2.559132,1.300307 5.720058,2.836331 6.858174,5.471606 1.509483,3.495122 0.278977,8.635922 -1.3126,12.09443 -1.864485,4.051558 -5.484559,6.652506 -9.659976,8.220091 -5.002924,1.878261 -9.946596,1.01979 -14.815536,-1.182601 -6.065019,-2.743419 -10.462861,-8.324605 -14.740727,-13.424666 -4.266208,-5.086169 -6.32081,-10.767764 -10.099288,-16.22604 -2.542126,-3.67227 -5.759929,-7.95297 -8.863069,-11.16522 -2.93879,-3.04212 -6.1341,-5.81961 -9.62744,-8.20446 -2.61511,-1.7853 -8.19974,-5.11213 -8.19974,-5.11213 z"
             style="display:inline;fill:#ffffff;fill-opacity:1;fill-rule:evenodd;stroke:#000000;stroke-width:0;stroke-linecap:butt;stroke-linejoin:miter;stroke-miterlimit:10.69999981;stroke-dasharray:none;stroke-opacity:1"
             inkscape:label="thick question 1" />
          <ellipse
             ry="12.803032"
             rx="12.411103"
             cy="-131.00928"
             cx="-5.347229"
             id="path5184"
             style="display:inline;opacity:1;fill:#ffffff;fill-opacity:1;stroke-width:1.12875724;stroke-linejoin:round;stroke-miterlimit:4;stroke-dasharray:none"
             inkscape:label="center point" />
        </g>
      </g>
    </g>
  </g>
</svg>
